<svg width="24" height="25" viewBox="0 0 24 25" fill="none" xmlns="http://www.w3.org/2000/svg">
<g clip-path="url(#clip0_770_51)">
<path d="M7.875 15.5C10.5674 15.5 12.75 13.3174 12.75 10.625C12.75 7.93261 10.5674 5.75 7.875 5.75C5.18261 5.75 3 7.93261 3 10.625C3 13.3174 5.18261 15.5 7.875 15.5Z" stroke="#004236" stroke-width="2" stroke-linecap="round" stroke-linejoin="round"/>
<path d="M0.960938 19.25C1.71008 18.0982 2.73506 17.1517 3.94281 16.4965C5.15056 15.8412 6.50284 15.498 7.87688 15.498C9.25091 15.498 10.6032 15.8412 11.8109 16.4965C13.0187 17.1517 14.0437 18.0982 14.7928 19.25" stroke="#004236" stroke-width="2" stroke-linecap="round" stroke-linejoin="round"/>
<path d="M16.125 15.5C17.499 15.4992 18.8513 15.8418 20.0592 16.4967C21.267 17.1517 22.292 18.0981 23.0409 19.25" stroke="#004236" stroke-width="2" stroke-linecap="round" stroke-linejoin="round"/>
<path d="M14.3164 6.09687C14.9833 5.8309 15.7006 5.7155 16.4173 5.75893C17.1339 5.80235 17.8321 6.00352 18.462 6.34806C19.0918 6.69261 19.6378 7.17202 20.0609 7.75204C20.484 8.33206 20.7738 8.99838 20.9095 9.70338C21.0452 10.4084 21.0236 11.1346 20.8461 11.8303C20.6686 12.526 20.3396 13.1738 19.8827 13.7276C19.4258 14.2814 18.8522 14.7274 18.2029 15.0338C17.5536 15.3402 16.8447 15.4994 16.1267 15.5" stroke="#004236" stroke-width="2" stroke-linecap="round" stroke-linejoin="round"/>
</g>
<defs>
<clipPath id="clip0_770_51">
<rect width="24" height="24" fill="white" transform="translate(0 0.5)"/>
</clipPath>
</defs>
</svg>
